<svg id="2ad429d3-39a2-4b59-9f2f-de456f09a78d" data-name="Layer 1" xmlns="http://www.w3.org/2000/svg" viewBox="0 0 261.63 261.63"><title>logo</title><rect x="38.31" y="38.31" width="185" height="185" transform="translate(-54.18 130.81) rotate(-45)"/><polygon points="135.32 63.93 135.42 64.13 135.42 197.63 135.32 197.73 135.32 244.83 168.72 211.43 168.72 164.33 168.52 164.53 168.52 97.23 168.72 97.33 168.72 50.23 135.32 16.83 135.32 63.93" fill="#4d6bff"/><polygon points="94.12 96.13 94.22 96.03 94.22 165.63 65.12 136.53 41.52 160.03 127.42 246.03 127.42 198.93 127.32 198.73 127.32 62.93 127.42 62.83 127.42 15.73 94.12 49.03 94.12 96.13" fill="#fe688b"/><polygon points="176.52 58.13 176.52 105.13 202.22 130.83 176.52 156.53 176.52 203.63 249.32 130.83 176.52 58.13" fill="#5feacb"/><polygon points="59.42 130.83 86.32 104.03 86.32 56.93 12.32 130.83 36.02 154.53 59.52 130.93 59.42 130.83" fill="#f9b850"/></svg>