<svg id="1cd6312f-1e55-48fb-90af-f778fe228d05" data-name="Layer 1" xmlns="http://www.w3.org/2000/svg" viewBox="0 0 508 438"><title>skills</title><path d="M508,367.9V0H0V367.9H127.5l-19.7,52.6h-29V438H429.1V420.5h-29l-19.7-52.6ZM490.5,17.6V280.4H17.5V17.6ZM17.5,350.4V297.8h473v52.6H17.5Zm364,70h-255l19.7-52.6H361.8Z" fill="#3d59e8"/><rect x="245.2" y="315.3" width="17.5" height="17.5" fill="#3d59e8"/><rect x="280.3" y="315.3" width="17.5" height="17.5" fill="#3d59e8"/><rect x="210.2" y="315.3" width="17.5" height="17.5" fill="#3d59e8"/><polygon points="183.5 203.9 126.5 148.9 183.5 93.9 171.4 81.3 101.2 148.9 171.4 216.5 183.5 203.9" fill="#3d59e8"/><polygon points="336.6 216.5 406.8 148.9 336.6 81.3 324.5 93.9 381.5 148.9 324.5 203.9 336.6 216.5" fill="#3d59e8"/><polygon points="314.1 65.9 299 56.8 193.9 232 209 241 314.1 65.9" fill="#3d59e8"/></svg>