<svg id="872011a0-396c-4962-8700-dc1d04fa7bc8" data-name="Layer 1" xmlns="http://www.w3.org/2000/svg" viewBox="0 0 64 62"><title>tools</title><path d="M12,0H1A.94.94,0,0,0,0,1V61a.94.94,0,0,0,1,1H12a.94.94,0,0,0,1-1V1A.94.94,0,0,0,12,0ZM11,4H8V6h3V8H8v2h3v2H8v2h3v2H8v2h3v2H8v2h3v2H8v2h3v2H8v2h3v2H8v2h3v2H8v2h3v2H8v2h3v2H8v2h3v2H8v2h3v2H8v2h3v2H8v2h3v2H2V2h9Z" fill="#fe688b"/><path d="M21.4,12.6a1,1,0,0,0-1.3-.5,1.21,1.21,0,0,0-.5.5l-2.5,6a.6.6,0,0,0-.1.4V61a.94.94,0,0,0,1,1h5a.94.94,0,0,0,1-1V19a.6.6,0,0,0-.1-.4Zm-.9,3,1,2.4h-2ZM19,53V20h3V53Zm3,2v1H19V55Zm-3,5V58h3v2Z" fill="#fe688b"/><path d="M29.7,27.3a.91.91,0,0,0-1.1-.2.87.87,0,0,0-.6.9V61a.94.94,0,0,0,1,1H62a.87.87,0,0,0,.9-.6.91.91,0,0,0-.2-1.1ZM30,60V30.4L59.6,60Z" fill="#fe688b"/><path d="M38.5,56.5a5,5,0,1,0-5-5A5,5,0,0,0,38.5,56.5Zm0-8a3,3,0,1,1-3,3A2.95,2.95,0,0,1,38.5,48.5Z" fill="#fe688b"/><path d="M18,7H29a.94.94,0,0,0,1-1V1a.94.94,0,0,0-1-1H20.4A3.37,3.37,0,0,0,17,3.4V6A.94.94,0,0,0,18,7ZM28,5H23V2h5ZM19,3.4A1.37,1.37,0,0,1,20.4,2H21V5H19Z" fill="#fe688b"/><path d="M44,15H40a1,1,0,0,0,0,2h4a1,1,0,0,0,0-2Z" fill="#fe688b"/><path d="M60,15H55.9A7,7,0,0,0,49,9H41a7,7,0,0,0,0,14h8a7,7,0,0,0,6.9-6H60a.94.94,0,0,1,1,1v6a.94.94,0,0,1-1,1H45a3,3,0,0,0,0,6H57a1,1,0,0,1,0,2H48a3,3,0,0,0,0,6h6a.94.94,0,0,1,1,1v5a1,1,0,0,0,2,0V40a3,3,0,0,0-3-3H48a1,1,0,0,1,0-2h9a3,3,0,0,0,0-6H45a1,1,0,0,1,0-2H60a3,3,0,0,0,3-3V18A3,3,0,0,0,60,15ZM49,21H41a5,5,0,0,1,0-10h8a5,5,0,0,1,0,10Z" fill="#fe688b"/><rect x="62" width="2" height="2" fill="#fe688b"/><rect x="62" y="4" width="2" height="2" fill="#fe688b"/><rect x="58" width="2" height="2" fill="#fe688b"/><rect x="58" y="4" width="2" height="2" fill="#fe688b"/><rect x="54" width="2" height="2" fill="#fe688b"/><rect x="50" width="2" height="2" fill="#fe688b"/><rect x="62" y="8" width="2" height="2" fill="#fe688b"/><rect x="55" y="48" width="2" height="2" fill="#fe688b"/></svg>